opsz144_wght1000_wdth50.ufo
<glyph name="D" format="2">
	<unicode hex="0044"/>
	<advance width="1594"/>
	<outline>
		<contour>
			<point x="82" y="0" type="line"/>
			<point x="82" y="100" type="line"/>
			<point x="290" y="135" type="line"/>
			<point x="292" y="754" type="line"/>
			<point x="290" y="1352" type="line"/>
			<point x="82" y="1386" type="line"/>
			<point x="82" y="1500" type="line"/>
			<point x="728" y="1500" type="line" smooth="yes"/>
			<point x="1149" y="1500"/>
			<point x="1510" y="1164"/>
			<point x="1510" y="777" type="qcurve" smooth="yes"/>
			<point x="1510" y="395"/>
			<point x="1130" y="0"/>
			<point x="788" y="0" type="qcurve" smooth="yes"/>
		</contour>
		<contour>
			<point x="468" y="130" type="line"/>
			<point x="502" y="124"/>
			<point x="652" y="115"/>
			<point x="727" y="115" type="qcurve" smooth="yes"/>
			<point x="1012" y="115"/>
			<point x="1322" y="424"/>
			<point x="1324" y="761" type="qcurve" smooth="yes"/>
			<point x="1326" y="1032"/>
			<point x="1012" y="1375"/>
			<point x="705" y="1375" type="qcurve" smooth="yes"/>
			<point x="655" y="1375"/>
			<point x="504" y="1363"/>
			<point x="468" y="1358" type="qcurve"/>
			<point x="466" y="754" type="line"/>
		</contour>
	</outline>
	<anchor name="bottom" x="686" y="0"/>
	<anchor name="center" x="438" y="754"/>
	<anchor name="top" x="686" y="1500"/>
	<anchor name="liga" x="1590" y="0"/>
</glyph>
<glyph name="E" format="2">
	<unicode hex="0045"/>
	<advance width="1255"/>
	<outline>
		<contour>
			<point x="80.9967041016" y="0" type="line"/>
			<point x="80.9967041016" y="98.998046875" type="line"/>
			<point x="289.9996337891" y="133.998046875" type="line"/>
			<point x="291.9996337891" y="726" type="line"/>
			<point x="289.9996337891" y="1358.2822265625" type="line"/>
			<point x="80.9967041016" y="1392.2822265625" type="line"/>
			<point x="80.9967041016" y="1500" type="line"/>
			<point x="1097.9736328125" y="1500" type="line"/>
			<point x="1097.9736328125" y="1122" type="line"/>
			<point x="988.9725341797" y="1122" type="line"/>
			<point x="889.9725341797" y="1375.5503540039" type="line"/>
			<point x="501.0113525391" y="1375.5503540039" type="line"/>
			<point x="468.3341064453" y="1348.5503540039" type="line"/>
			<point x="468.3341064453" y="784" type="line"/>
			<point x="468.3341064453" y="145.643371582" type="line"/>
			<point x="489.3341064453" y="118.643371582" type="line"/>
			<point x="948.9725341797" y="118.643371582" type="line"/>
			<point x="1079.9725341797" y="398" type="line"/>
			<point x="1186.9736328125" y="398" type="line"/>
			<point x="1161.9736328125" y="0" type="line"/>
		</contour>
		<contour>
			<point x="255.6568603516" y="737.1942749023" type="line"/>
			<point x="255.6568603516" y="836.5476074219" type="line"/>
			<point x="759.9725341797" y="849.3538818359" type="line"/>
			<point x="851.9725341797" y="983" type="line"/>
			<point x="956.9736328125" y="983" type="line"/>
			<point x="956.9736328125" y="582" type="line"/>
			<point x="851.9725341797" y="582" type="line"/>
			<point x="759.9725341797" y="724.3880004883" type="line"/>
		</contour>
	</outline>
	<anchor name="bottom" x="681" y="0"/>
	<anchor name="ogonek" x="1000" y="0"/>
	<anchor name="top" x="654" y="1500"/>
	<anchor name="tonos" x="0" y="1500"/>
</glyph>
<glyph name="G" format="2">
	<unicode hex="0047"/>
	<advance width="1496"/>
	<outline>
		<contour>
			<point x="80.0009765625" y="754.9094238281" type="qcurve" smooth="yes"/>
			<point x="80.0009765625" y="1137.2731933594"/>
			<point x="528.8381347656" y="1518.8188476562"/>
			<point x="837.1588745117" y="1518.8188476562" type="qcurve" smooth="yes"/>
			<point x="1020.5677490234" y="1518.8188476562"/>
			<point x="1145.4843139648" y="1466.0787353516"/>
			<point x="1209.3554077148" y="1429.6125488281" type="qcurve"/>
			<point x="1248.500793457" y="1475.5" type="line"/>
			<point x="1363.3381958008" y="1475.5" type="line"/>
			<point x="1363.3381958008" y="1040" type="line"/>
			<point x="1232.2279663086" y="1040" type="line"/>
			<point x="1181.2279663086" y="1256" type="line" smooth="yes"/>
			<point x="1157.9551391602" y="1364.9094238281"/>
			<point x="1040.0083007812" y="1386.756652832"/>
			<point x="877.5563964844" y="1386.756652832" type="qcurve" smooth="yes"/>
			<point x="652.8475952148" y="1386.756652832"/>
			<point x="272.27734375" y="1050"/>
			<point x="272.27734375" y="751" type="qcurve" smooth="yes"/>
			<point x="272.27734375" y="482"/>
			<point x="664.467956543" y="105.4632568359"/>
			<point x="876.467956543" y="105.4632568359" type="qcurve" smooth="yes"/>
			<point x="1001.6491699219" y="105.4632568359"/>
			<point x="1210.8718261719" y="120.2442626953"/>
			<point x="1300.5678100586" y="129.3208618164" type="qcurve"/>
			<point x="1300.5678100586" y="587.001953125" type="line"/>
			<point x="1090.7957763672" y="617.001953125" type="line"/>
			<point x="1090.7957763672" y="715" type="line"/>
			<point x="1599.4006347656" y="715" type="line"/>
			<point x="1599.4006347656" y="617.001953125" type="line"/>
			<point x="1446.7064819336" y="587.001953125" type="line"/>
			<point x="1446.7064819336" y="143" type="line"/>
			<point x="1388.6115112305" y="76.2728271484"/>
			<point x="1106.1088256836" y="-15.7282714844"/>
			<point x="933.8643188477" y="-15.7282714844" type="qcurve" smooth="yes"/>
			<point x="570.3223876953" y="-15.7282714844"/>
			<point x="80.0009765625" y="348.1815185547"/>
		</contour>
	</outline>
	<anchor name="bottom" x="872" y="0"/>
	<anchor name="top" x="836" y="1500"/>
</glyph>
<glyph name="H" format="2">
	<unicode hex="0048"/>
	<advance width="1739"/>
	<outline>
		<contour>
			<point x="80.9967041016" y="0" type="line"/>
			<point x="80.9967041016" y="98.998046875" type="line"/>
			<point x="289.9996337891" y="133.998046875" type="line"/>
			<point x="291.9996337891" y="775" type="line"/>
			<point x="289.9996337891" y="1358.2822265625" type="line"/>
			<point x="80.9967041016" y="1392.2822265625" type="line"/>
			<point x="80.9967041016" y="1500" type="line"/>
			<point x="665.3370361328" y="1500" type="line"/>
			<point x="665.3370361328" y="1392.2822265625" type="line"/>
			<point x="469.3341064453" y="1358.2822265625" type="line"/>
			<point x="467.3341064453" y="775" type="line"/>
			<point x="469.3341064453" y="133.998046875" type="line"/>
			<point x="665.3370361328" y="98.998046875" type="line"/>
			<point x="665.3370361328" y="0" type="line"/>
		</contour>
		<contour>
			<point x="237.3341064453" y="709.4204711914" type="line"/>
			<point x="237.3341064453" y="840.9989013672" type="line"/>
			<point x="875.3341064453" y="833.3538818359" type="line"/>
			<point x="1525.3341064453" y="840.9989013672" type="line"/>
			<point x="1525.3341064453" y="709.4204711914" type="line"/>
			<point x="875.3341064453" y="709.4204711914" type="line"/>
		</contour>
		<contour>
			<point x="1071.3311767578" y="0" type="line"/>
			<point x="1071.3311767578" y="98.998046875" type="line"/>
			<point x="1269.3341064453" y="133.998046875" type="line"/>
			<point x="1271.3341064453" y="775" type="line"/>
			<point x="1269.3341064453" y="1358.2822265625" type="line"/>
			<point x="1073.3311767578" y="1392.2822265625" type="line"/>
			<point x="1073.3311767578" y="1500" type="line"/>
			<point x="1657.6715087891" y="1500" type="line"/>
			<point x="1657.6715087891" y="1392.2822265625" type="line"/>
			<point x="1448.6685791016" y="1358.2822265625" type="line"/>
			<point x="1446.6685791016" y="775" type="line"/>
			<point x="1448.6685791016" y="133.998046875" type="line"/>
			<point x="1657.6715087891" y="98.998046875" type="line"/>
			<point x="1657.6715087891" y="0" type="line"/>
		</contour>
	</outline>
	<anchor name="bottom" x="870" y="0"/>
	<anchor name="center" x="870" y="1079"/>
	<anchor name="top" x="870" y="1500"/>
	<anchor name="tonos" x="0" y="1500"/>
	<anchor name="cy_descender" x="1658" y="100"/>
</glyph>
<glyph name="J" format="2">
	<unicode hex="004A"/>
	<advance width="813"/>
	<outline>
		<contour>
			<point x="150.7341308594" y="-206.2403564453" type="qcurve"/>
			<point x="157.7341308594" y="-90.2427978516" type="line"/>
			<point x="176.7341308594" y="-89.4029541016"/>
			<point x="209.7341308594" y="-86.1632080078"/>
			<point x="247.7341308594" y="-84.7232666016" type="qcurve" smooth="yes"/>
			<point x="306.7341308594" y="-81.8433837891"/>
			<point x="359.7341308594" y="-93.1212158203"/>
			<point x="359.7341308594" y="-38.1212158203" type="qcurve" smooth="yes"/>
			<point x="363.7341308594" y="754" type="line"/>
			<point x="356.7341308594" y="1358.2822265625" type="line"/>
			<point x="130.1928100586" y="1392.2822265625" type="line"/>
			<point x="130.1928100586" y="1500" type="line"/>
			<point x="741.0277099609" y="1500" type="line"/>
			<point x="670" y="1384" type="line"/>
			<point x="480" y="1350" type="line"/>
			<point x="538.4865722656" y="754" type="line"/>
			<point x="538.4865722656" y="172.8787841797" type="line" smooth="yes"/>
			<point x="536.7172851562" y="-1.1212158203"/>
			<point x="387.1369628906" y="-215.2408447266"/>
			<point x="249.5969238281" y="-215.2408447266" type="qcurve" smooth="yes"/>
			<point x="226.2316894531" y="-215.2408447266"/>
			<point x="183.7341308594" y="-211.4405517578"/>
		</contour>
	</outline>
	<anchor name="bottom" x="376" y="-208"/>
	<anchor name="top" x="376" y="1500"/>
	<anchor name="_liga" x="0" y="0"/>
</glyph>
<glyph name="K" format="2">
	<unicode hex="004B"/>
	<advance width="1215"/>
	<outline>
		<contour>
			<point x="80.9967041016" y="0" type="line"/>
			<point x="80.9967041016" y="98.998046875" type="line"/>
			<point x="289.9996337891" y="133.998046875" type="line"/>
			<point x="291.9996337891" y="754" type="line"/>
			<point x="289.9996337891" y="1358.2822265625" type="line"/>
			<point x="80.9967041016" y="1392.2822265625" type="line"/>
			<point x="80.9967041016" y="1500" type="line"/>
			<point x="669.4138183594" y="1500" type="line"/>
			<point x="669.4138183594" y="1392.2822265625" type="line"/>
			<point x="468.3341064453" y="1358.2822265625" type="line"/>
			<point x="463.3341064453" y="754" type="line"/>
			<point x="468.3341064453" y="133.998046875" type="line"/>
			<point x="666.3370361328" y="98.998046875" type="line"/>
			<point x="666.3370361328" y="0" type="line"/>
		</contour>
		<contour>
			<point x="335.6282348633" y="472.0192871094" type="line"/>
			<point x="332.6282348633" y="589.0736694336" type="line"/>
			<point x="972.9154663086" y="1358.2822265625" type="line"/>
			<point x="765.1441650391" y="1393.2822265625" type="line"/>
			<point x="765.1441650391" y="1500" type="line"/>
			<point x="1405.0172119141" y="1500" type="line"/>
			<point x="1405.0172119141" y="1393.2822265625" type="line"/>
			<point x="1140.7839355469" y="1358.2822265625" type="line"/>
			<point x="692.7697143555" y="919.1895751953" type="line"/>
			<point x="652.2304077148" y="869.4188232422" type="line"/>
		</contour>
		<contour>
			<point x="574.9610595703" y="789.2380371094" type="line"/>
			<point x="649.3251953125" y="1021.4211425781" type="line"/>
			<point x="1233.3198242188" y="132.998046875" type="line"/>
			<point x="1407.0143432617" y="98.998046875" type="line"/>
			<point x="1407.0143432617" y="0" type="line"/>
			<point x="903.9609375" y="0" type="line"/>
			<point x="903.9609375" y="98.998046875" type="line"/>
			<point x="1057.2709960938" y="132.998046875" type="line"/>
		</contour>
	</outline>
	<anchor name="bottom" x="812" y="0"/>
	<anchor name="top" x="770" y="1500"/>
</glyph>
<glyph name="L" format="2">
	<unicode hex="004C"/>
	<advance width="1270"/>
	<outline>
		<contour>
			<point x="92.9967041016" y="0" type="line"/>
			<point x="92.9967041016" y="98.998046875" type="line"/>
			<point x="289.9996337891" y="136.998046875" type="line"/>
			<point x="291.9996337891" y="754" type="line"/>
			<point x="289.9996337891" y="1358.2822265625" type="line"/>
			<point x="80.9967041016" y="1392.2822265625" type="line"/>
			<point x="80.9967041016" y="1500" type="line"/>
			<point x="722.2604370117" y="1500" type="line"/>
			<point x="722.2604370117" y="1392.2822265625" type="line"/>
			<point x="473.3341064453" y="1358.2822265625" type="line"/>
			<point x="467.3341064453" y="754" type="line"/>
			<point x="469.3341064453" y="139.643371582" type="line"/>
			<point x="494.3341064453" y="118.643371582" type="line"/>
			<point x="1013.5074462891" y="118.643371582" type="line"/>
			<point x="1142.5074462891" y="475.143371582" type="line"/>
			<point x="1249.8359375" y="475.143371582" type="line"/>
			<point x="1217.8684082031" y="0" type="line"/>
		</contour>
	</outline>
	<anchor name="bottom" x="705" y="0"/>
	<anchor name="centerright" x="928" y="750"/>
	<anchor name="top" x="632" y="1500"/>
	<anchor name="topright" x="784" y="1001"/>
	<anchor name="center" x="378" y="750"/>
	<anchor name="liga" x="1264" y="0"/>
</glyph>
<glyph name="M" format="2">
	<unicode hex="004D"/>
	<advance width="2183"/>
	<outline>
		<contour>
			<point x="80.9967041016" y="0" type="line"/>
			<point x="80.9967041016" y="98.998046875" type="line"/>
			<point x="312.9996337891" y="133.998046875" type="line"/>
			<point x="316.9996337891" y="747" type="line"/>
			<point x="321.9996337891" y="1359.2822265625" type="line"/>
			<point x="87.9967041016" y="1393.2822265625" type="line"/>
			<point x="87.9967041016" y="1500" type="line"/>
			<point x="608.2280883789" y="1504.5775146484" type="line"/>
			<point x="895.3118286133" y="905.8516845703" type="line"/>
			<point x="1085.1723022461" y="351.8618164062" type="line"/>
			<point x="1126.981262207" y="246.6654663086" type="line"/>
			<point x="1126.981262207" y="246.6654663086" type="line"/>
			<point x="1164.8137817383" y="353.0230712891" type="line"/>
			<point x="1378.0797729492" y="956.1304321289" type="line"/>
			<point x="1619.9205932617" y="1501" type="line"/>
			<point x="2102.4351806641" y="1501" type="line"/>
			<point x="2102.4351806641" y="1393.2822265625" type="line"/>
			<point x="1894.4322509766" y="1359.2822265625" type="line"/>
			<point x="1890.7783203125" y="751" type="line"/>
			<point x="1893.4322509766" y="133.998046875" type="line"/>
			<point x="2100.4351806641" y="98.998046875" type="line"/>
			<point x="2100.4351806641" y="0" type="line"/>
			<point x="1485.5209960938" y="0" type="line"/>
			<point x="1487.4827880859" y="100.998046875" type="line"/>
			<point x="1715.2935791016" y="133.998046875" type="line"/>
			<point x="1718.2935791016" y="749" type="line"/>
			<point x="1725.1323242188" y="1282.8177490234" type="line"/>
			<point x="1730.9093017578" y="1365.8177490234" type="line"/>
			<point x="1730.9093017578" y="1367.1256103516" type="line"/>
			<point x="1699.0861206055" y="1286.9612426758" type="line"/>
			<point x="1500.3361816406" y="876.2292480469" type="line"/>
			<point x="1177.138671875" y="0" type="line"/>
			<point x="1049.6195678711" y="0" type="line"/>
			<point x="719.6754760742" y="751.7182617188" type="line"/>
			<point x="490.3368530273" y="1291.3188476562" type="line"/>
			<point x="450.8335571289" y="1371.7413330078" type="line"/>
			<point x="450.8335571289" y="1370.4334716797" type="line"/>
			<point x="453.1032104492" y="1285.4334716797" type="line"/>
			<point x="449.4492797852" y="747" type="line"/>
			<point x="451.4492797852" y="133.998046875" type="line"/>
			<point x="690.3754272461" y="100.998046875" type="line"/>
			<point x="690.3754272461" y="2" type="line"/>
		</contour>
	</outline>
	<anchor name="bottom" x="1025" y="0"/>
	<anchor name="top" x="1058" y="1500"/>
</glyph>
<glyph name="N" format="2">
	<unicode hex="004E"/>
	<advance width="1583"/>
	<outline>
		<contour>
			<point x="80.9967041016" y="0" type="line"/>
			<point x="80.9967041016" y="98.998046875" type="line"/>
			<point x="313.9996337891" y="132.998046875" type="line"/>
			<point x="317.9996337891" y="664" type="line"/>
			<point x="322.9996337891" y="1359.2822265625" type="line"/>
			<point x="87.9967041016" y="1393.2822265625" type="line"/>
			<point x="87.9967041016" y="1500" type="line"/>
			<point x="519.1815795898" y="1500" type="line"/>
			<point x="970.2161254883" y="747.5791015625" type="line"/>
			<point x="1114.9332885742" y="485.2946777344" type="line"/>
			<point x="1174.2947387695" y="383.0317382812" type="line"/>
			<point x="1174.9719848633" y="384.3395996094" type="line"/>
			<point x="1171.0101928711" y="513.3395996094" type="line"/>
			<point x="1166.1217041016" y="802.365234375" type="line"/>
			<point x="1160.4295654297" y="1359.2822265625" type="line"/>
			<point x="907.5802001953" y="1393.2822265625" type="line"/>
			<point x="907.5802001953" y="1500" type="line"/>
			<point x="1521.1727294922" y="1500" type="line"/>
			<point x="1521.1727294922" y="1393.2822265625" type="line"/>
			<point x="1295.1697998047" y="1359.2822265625" type="line"/>
			<point x="1295.1697998047" y="799.365234375" type="line"/>
			<point x="1297.1697998047" y="-4" type="line"/>
			<point x="1209.0508422852" y="-4" type="line"/>
			<point x="836.0735473633" y="594.9913330078" type="line"/>
			<point x="497.6151123047" y="1268.3261108398" type="line"/>
			<point x="442.1688232422" y="1364.8884887695" type="line"/>
			<point x="442.1688232422" y="1363.5806274414" type="line"/>
			<point x="447.5168457031" y="1252.5806274414" type="line"/>
			<point x="444.9011230469" y="733.724609375" type="line"/>
			<point x="446.9011230469" y="132.998046875" type="line"/>
			<point x="680.8272705078" y="98.998046875" type="line"/>
			<point x="680.8272705078" y="0" type="line"/>
		</contour>
	</outline>
	<anchor name="bottom" x="800" y="0"/>
	<anchor name="top" x="800" y="1500"/>
	<anchor name="engtail" x="1324" y="0"/>
	<anchor name="liga" x="1600" y="0"/>
</glyph>
<glyph name="P" format="2">
	<unicode hex="0050"/>
	<advance width="1111"/>
	<outline>
		<contour>
			<point x="80.9967041016" y="0" type="line"/>
			<point x="80.9967041016" y="97.998046875" type="line"/>
			<point x="289.9996337891" y="131.998046875" type="line"/>
			<point x="293.9677734375" y="754" type="line"/>
			<point x="289.9996337891" y="1358.2822265625" type="line"/>
			<point x="80.9967041016" y="1392.2822265625" type="line"/>
			<point x="80.9967041016" y="1500" type="line"/>
			<point x="655.8745727539" y="1500" type="line" smooth="yes"/>
			<point x="857.122253418" y="1500"/>
			<point x="1106.6429443359" y="1307"/>
			<point x="1106.6429443359" y="1100" type="qcurve" smooth="yes"/>
			<point x="1106.6429443359" y="883"/>
			<point x="817.9850463867" y="653.6780395508"/>
			<point x="669.5680541992" y="653.6780395508" type="qcurve" smooth="yes"/>
			<point x="566.5886230469" y="653.6780395508"/>
			<point x="443.3341064453" y="662.0974121094"/>
			<point x="368.6527099609" y="677.1942749023" type="qcurve"/>
			<point x="374.6527099609" y="785.257019043" type="line"/>
			<point x="434.9836425781" y="777.8376464844"/>
			<point x="543.5039672852" y="766.2245483398"/>
			<point x="633.3410644531" y="766.2245483398" type="qcurve" smooth="yes"/>
			<point x="755.3410644531" y="766.2245483398"/>
			<point x="928.6629638672" y="1032"/>
			<point x="928.6629638672" y="1117" type="qcurve" smooth="yes"/>
			<point x="928.6629638672" y="1233"/>
			<point x="813.801574707" y="1375.5503540039"/>
			<point x="667.801574707" y="1375.5503540039" type="qcurve" smooth="yes"/>
			<point x="482.3341064453" y="1375.5503540039" type="line"/>
			<point x="466.3341064453" y="1363.5503540039" type="line"/>
			<point x="466.3341064453" y="737" type="line"/>
			<point x="468.3341064453" y="135.998046875" type="line"/>
			<point x="691.1834716797" y="98.998046875" type="line"/>
			<point x="691.1834716797" y="0" type="line"/>
		</contour>
	</outline>
	<anchor name="bottom" x="634" y="0"/>
	<anchor name="top" x="634" y="1500"/>
</glyph>
<glyph name="Q" format="2">
	<unicode hex="0051"/>
	<advance width="1653"/>
	<outline>
		<contour>
			<point x="80.0009765625" y="755.9203491211" type="qcurve" smooth="yes"/>
			<point x="80.0009765625" y="1098.7593994141"/>
			<point x="535.4127807617" y="1519.8188476562"/>
			<point x="821.5716552734" y="1519.8188476562" type="qcurve" smooth="yes"/>
			<point x="1133.1958007812" y="1519.8188476562"/>
			<point x="1573.0626831055" y="1119.8184814453"/>
			<point x="1573.0626831055" y="764" type="qcurve" smooth="yes"/>
			<point x="1573.0626831055" y="463.1815185547"/>
			<point x="1097.2129516602" y="33.1811523438"/>
			<point x="814.7991943359" y="33.1811523438" type="qcurve" smooth="yes"/>
			<point x="489.2503051758" y="33.1811523438"/>
			<point x="80.0009765625" y="478.6717529297"/>
		</contour>
		<contour>
			<point x="268.5048828125" y="760.0796508789" type="qcurve" smooth="yes"/>
			<point x="268.5048828125" y="507.0796508789"/>
			<point x="565.2171630859" y="167.1145629883"/>
			<point x="820.2171630859" y="166.5339355469" type="qcurve" smooth="yes"/>
			<point x="1084.2171630859" y="165.9533081055"/>
			<point x="1386.5587768555" y="481"/>
			<point x="1386.5587768555" y="766" type="qcurve" smooth="yes"/>
			<point x="1386.5587768555" y="1057"/>
			<point x="1079.4920043945" y="1381.5953979492"/>
			<point x="826.4920043945" y="1381.5953979492" type="qcurve" smooth="yes"/>
			<point x="563.4920043945" y="1381.5953979492"/>
			<point x="268.5048828125" y="1076.0796508789"/>
		</contour>
		<contour>
			<point x="616.6966552734" y="1.0634765625" type="qcurve"/>
			<point x="1255.1821899414" y="-170.3209228516" type="line"/>
			<point x="1300.9001464844" y="-178.0958862305"/>
			<point x="1369.9852294922" y="-104.7611694336"/>
			<point x="1424.7322387695" y="-16.5025024414" type="qcurve"/>
			<point x="1527.182434082" y="-61.2113647461" type="line"/>
			<point x="1436.643737793" y="-226.4217529297"/>
			<point x="1280.6364746094" y="-318.4946899414"/>
			<point x="1156.7353515625" y="-312.0255126953" type="qcurve"/>
			<point x="653.4259643555" y="-179.7673339844" type="line"/>
			<point x="569.4194946289" y="-158.1861572266"/>
			<point x="422.0600585938" y="-187.2678222656"/>
			<point x="368.6323852539" y="-230.5131225586" type="qcurve"/>
			<point x="303.6978759766" y="-188.3204956055" type="line"/>
			<point x="379.5126342773" y="-94.9471435547"/>
			<point x="556.3460693359" y="-5.8745727539"/>
		</contour>
		<contour>
			<point x="605.3324584961" y="30.3927612305" type="line"/>
			<point x="800.0629882812" y="183.3947143555" type="line"/>
			<point x="882.4144287109" y="86.9680786133" type="line"/>
			<point x="697.4907836914" y="-45.7094116211" type="line"/>
		</contour>
	</outline>
	<anchor name="bottom" x="832" y="0"/>
	<anchor name="top" x="823" y="1502"/>
</glyph>
<glyph name="R" format="2">
	<unicode hex="0052"/>
	<advance width="1251"/>
	<outline>
		<contour>
			<point x="81.9701538086" y="0" type="line"/>
			<point x="81.9701538086" y="98.998046875" type="line"/>
			<point x="290.9730834961" y="131.998046875" type="line"/>
			<point x="292.9730834961" y="746.544921875" type="line"/>
			<point x="290.9730834961" y="1358.2822265625" type="line"/>
			<point x="81.9701538086" y="1392.2822265625" type="line"/>
			<point x="81.9701538086" y="1500" type="line"/>
			<point x="623.7379150391" y="1500" type="line" smooth="yes"/>
			<point x="811.3858032227" y="1500"/>
			<point x="1035.1379394531" y="1310"/>
			<point x="1035.1379394531" y="1124" type="qcurve" smooth="yes"/>
			<point x="1035.1379394531" y="934"/>
			<point x="805.5902709961" y="734.3874511719"/>
			<point x="687.5301513672" y="734.3874511719" type="qcurve" smooth="yes"/>
			<point x="575.7606811523" y="734.3874511719"/>
			<point x="448.8271484375" y="742.7099609375"/>
			<point x="357.157409668" y="745.0324707031" type="qcurve"/>
			<point x="357.157409668" y="854.063293457" type="line"/>
			<point x="629.2366333008" y="854.063293457" type="line" smooth="yes"/>
			<point x="773.2366333008" y="854.063293457"/>
			<point x="868.4807128906" y="1013"/>
			<point x="868.4807128906" y="1143" type="qcurve" smooth="yes"/>
			<point x="868.4807128906" y="1251"/>
			<point x="813.5994262695" y="1375.5503540039"/>
			<point x="679.5994262695" y="1375.5503540039" type="qcurve" smooth="yes"/>
			<point x="486.3075561523" y="1375.5503540039" type="line"/>
			<point x="469.3075561523" y="1355.5503540039" type="line"/>
			<point x="467.3075561523" y="785" type="line"/>
			<point x="469.3075561523" y="131.998046875" type="line"/>
			<point x="678.8490600586" y="98.998046875" type="line"/>
			<point x="678.8490600586" y="0" type="line"/>
		</contour>
		<contour>
			<point x="614" y="788" type="line"/>
			<point x="802" y="805" type="line"/>
			<point x="1055.9630737305" y="200" type="line" smooth="yes"/>
			<point x="1224" y="173"/>
			<point x="1318.4057006836" y="71.9389038086"/>
			<point x="1358.2922363281" y="98.998046875" type="qcurve"/>
			<point x="1358.2922363281" y="-1" type="line"/>
			<point x="1039.1107177734" y="-1" type="line"/>
			<point x="996.2062988281" y="53" type="line"/>
		</contour>
	</outline>
	<anchor name="bottom" x="803" y="0"/>
	<anchor name="top" x="630" y="1500"/>
</glyph>
<glyph name="T" format="2">
	<unicode hex="0054"/>
	<advance width="1215"/>
	<outline>
		<contour>
			<point x="29.4689941406" y="1044.5503540039" type="line"/>
			<point x="29.4689941406" y="1500" type="line"/>
			<point x="1185.8969726562" y="1500" type="line"/>
			<point x="1185.8969726562" y="1044.5503540039" type="line"/>
			<point x="1074.8958740234" y="1044.5503540039" type="line"/>
			<point x="1037.8968505859" y="1375.5503540039" type="line"/>
			<point x="711.8502197266" y="1375.5503540039" type="line"/>
			<point x="697.8502197266" y="1367.5503540039" type="line"/>
			<point x="699.8502197266" y="754" type="line"/>
			<point x="701.8502197266" y="131.998046875" type="line"/>
			<point x="915.0840454102" y="97.998046875" type="line"/>
			<point x="915.0840454102" y="0" type="line"/>
			<point x="296.897277832" y="0" type="line"/>
			<point x="296.897277832" y="97.998046875" type="line"/>
			<point x="521.5157470703" y="131.998046875" type="line"/>
			<point x="525.5157470703" y="754" type="line"/>
			<point x="528.5157470703" y="1367.5503540039" type="line"/>
			<point x="512.5157470703" y="1375.5503540039" type="line"/>
			<point x="166.4691162109" y="1375.5503540039" type="line"/>
			<point x="139.4700927734" y="1044.5503540039" type="line"/>
		</contour>
	</outline>
	<anchor name="bottom" x="644" y="0"/>
	<anchor name="center" x="644" y="750"/>
	<anchor name="top" x="644" y="1500"/>
	<anchor name="cy_descender" x="951" y="100"/>
</glyph>
<glyph name="U" format="2">
	<unicode hex="0055"/>
	<advance width="1587"/>
	<outline>
		<contour>
			<point x="57.7164306641" y="1393.2822265625" type="line"/>
			<point x="57.7164306641" y="1500" type="line"/>
			<point x="644.8010864258" y="1500" type="line"/>
			<point x="644.8010864258" y="1393.2822265625" type="line"/>
			<point x="428.4904785156" y="1359.2822265625" type="line"/>
			<point x="425.4904785156" y="794" type="line"/>
			<point x="425.4904785156" y="402.083190918" type="line" smooth="yes"/>
			<point x="425.3995361328" y="246.083190918"/>
			<point x="641.0556030273" y="118.9591674805"/>
			<point x="822.0556030273" y="118.9591674805" type="qcurve" smooth="yes"/>
			<point x="985.0556030273" y="118.9591674805"/>
			<point x="1197.7707519531" y="256.1800537109"/>
			<point x="1201.414855957" y="434.1800537109" type="qcurve" smooth="yes"/>
			<point x="1200.5761108398" y="794" type="line"/>
			<point x="1199.3670654297" y="1359.2822265625" type="line"/>
			<point x="943.4409179688" y="1393.2822265625" type="line"/>
			<point x="943.4409179688" y="1500" type="line"/>
			<point x="1575.1096801758" y="1500" type="line"/>
			<point x="1575.1096801758" y="1393.2822265625" type="line"/>
			<point x="1340.1067504883" y="1359.2822265625" type="line"/>
			<point x="1339.9454956055" y="794" type="line"/>
			<point x="1339.735168457" y="390" type="line" smooth="yes"/>
			<point x="1340.5998535156" y="157.6358642578"/>
			<point x="1113.3941650391" y="-13.7282714844"/>
			<point x="811.276550293" y="-13.7282714844" type="qcurve" smooth="yes"/>
			<point x="516.1657714844" y="-13.7282714844"/>
			<point x="260.7052001953" y="195.7268066406"/>
			<point x="261.7961425781" y="422" type="qcurve" smooth="yes"/>
			<point x="263.1188964844" y="794" type="line"/>
			<point x="261.7961425781" y="1359.2822265625" type="line"/>
		</contour>
	</outline>
	<anchor name="bottom" x="832" y="0"/>
	<anchor name="ogonek" x="1042" y="0"/>
	<anchor name="top" x="832" y="1500"/>
	<anchor name="topright" x="1590" y="1500"/>
</glyph>
<glyph name="V" format="2">
	<unicode hex="0056"/>
	<advance width="1398"/>
	<outline>
		<contour>
			<point x="-30.3751220703" y="1396.2822265625" type="line"/>
			<point x="-32.3751220703" y="1500" type="line"/>
			<point x="487.0912475586" y="1500" type="line"/>
			<point x="487.0912475586" y="1396.2822265625" type="line"/>
			<point x="301.7811889648" y="1368.2822265625" type="line"/>
			<point x="541.234375" y="698.0654907227" type="line"/>
			<point x="709" y="366" type="line"/>
			<point x="746" y="252" type="line"/>
			<point x="756" y="252" type="line"/>
			<point x="793" y="366" type="line"/>
			<point x="946.4083862305" y="836.8201293945" type="line"/>
			<point x="1131.2908935547" y="1354.2822265625" type="line"/>
			<point x="923.8267211914" y="1396.2822265625" type="line"/>
			<point x="923.8267211914" y="1500" type="line"/>
			<point x="1490.3186645508" y="1500" type="line"/>
			<point x="1490.3186645508" y="1396.2822265625" type="line"/>
			<point x="1287.0853881836" y="1354.2822265625" type="line"/>
			<point x="1068.5684204102" y="767.8492431641" type="line"/>
			<point x="789.4495239258" y="-0.7275390625" type="line"/>
			<point x="633.5792236328" y="-0.7275390625" type="line"/>
			<point x="359.0609130859" y="719.9541015625" type="line"/>
			<point x="138.9349365234" y="1366.2822265625" type="line"/>
		</contour>
	</outline>
	<anchor name="bottom" x="723" y="0"/>
	<anchor name="top" x="733" y="1500"/>
</glyph>
<glyph name="W" format="2">
	<unicode hex="0057"/>
	<advance width="1915"/>
	<outline>
		<contour>
			<point x="563.8583984375" y="-0.7275390625" type="line"/>
			<point x="332.9780273438" y="717.0394287109" type="line"/>
			<point x="140.9349365234" y="1365.2822265625" type="line"/>
			<point x="-32.3751220703" y="1396.2822265625" type="line"/>
			<point x="-34.3751220703" y="1500" type="line"/>
			<point x="485.7980957031" y="1500" type="line"/>
			<point x="485.7980957031" y="1396.2822265625" type="line"/>
			<point x="308.6416015625" y="1368.2822265625" type="line"/>
			<point x="504.4768066406" y="724.6920166016" type="line"/>
			<point x="675" y="370" type="line"/>
			<point x="710" y="256" type="line"/>
			<point x="720" y="256" type="line"/>
			<point x="759" y="370" type="line"/>
			<point x="868" y="674" type="line"/>
			<point x="996" y="1038" type="line"/>
			<point x="802.4361572266" y="1370.1220703125" type="line"/>
			<point x="622.1260986328" y="1400.1220703125" type="line"/>
			<point x="622.1260986328" y="1500" type="line"/>
			<point x="1185.4069824219" y="1500" type="line"/>
			<point x="1185.4069824219" y="1404.1220703125" type="line"/>
			<point x="1014.0969238281" y="1377.1220703125" type="line"/>
			<point x="1148.6270751953" y="835.1440429688" type="line"/>
			<point x="1397" y="370" type="line"/>
			<point x="1430" y="256" type="line"/>
			<point x="1440" y="256" type="line"/>
			<point x="1476" y="370" type="line"/>
			<point x="1629" y="803" type="line"/>
			<point x="1677.6975097656" y="1368.2822265625" type="line"/>
			<point x="1451.3101196289" y="1396.2822265625" type="line"/>
			<point x="1451.3101196289" y="1500" type="line"/>
			<point x="2040.1564941406" y="1500" type="line"/>
			<point x="2040.1564941406" y="1396.2822265625" type="line"/>
			<point x="1834" y="1365.2822265625" type="line"/>
			<point x="1747" y="760" type="line"/>
			<point x="1361.0686645508" y="-0.7275390625" type="line"/>
			<point x="1178.3684082031" y="-0.7275390625" type="line"/>
			<point x="1096" y="750" type="line"/>
			<point x="1060" y="866" type="line"/>
			<point x="1050" y="866" type="line"/>
			<point x="1014" y="750" type="line"/>
			<point x="744.8538818359" y="-0.7275390625" type="line"/>
		</contour>
	</outline>
	<anchor name="bottom" x="1051" y="0"/>
	<anchor name="top" x="1051" y="1500"/>
</glyph>
<glyph name="X" format="2">
	<unicode hex="0058"/>
	<advance width="1166"/>
	<outline>
		<contour>
			<point x="-13.0135498047" y="0" type="line"/>
			<point x="-13.0135498047" y="99.998046875" type="line"/>
			<point x="198.2965087891" y="130.998046875" type="line"/>
			<point x="575" y="786" type="line"/>
			<point x="259.0081176758" y="1356.2822265625" type="line"/>
			<point x="85.6212768555" y="1393.2822265625" type="line"/>
			<point x="85.6212768555" y="1500" type="line"/>
			<point x="577.6118164062" y="1500" type="line"/>
			<point x="577.6118164062" y="1393.2822265625" type="line"/>
			<point x="396.8401489258" y="1358.2822265625" type="line"/>
			<point x="569.7777099609" y="1048.3208007812" type="line"/>
			<point x="632.7219238281" y="984.4215087891" type="line"/>
			<point x="632.7219238281" y="984.4215087891" type="line"/>
			<point x="751" y="1043" type="line"/>
			<point x="821.5392456055" y="1353.2822265625" type="line"/>
			<point x="619.9982910156" y="1393.2822265625" type="line"/>
			<point x="619.9982910156" y="1500" type="line"/>
			<point x="1174.0603637695" y="1500" type="line"/>
			<point x="1174.0603637695" y="1393.2822265625" type="line"/>
			<point x="972.8270874023" y="1358.2822265625" type="line"/>
			<point x="703.2374267578" y="854.2811889648" type="line"/>
			<point x="1018.151550293" y="132.998046875" type="line"/>
			<point x="1197.4616088867" y="99.998046875" type="line"/>
			<point x="1197.4616088867" y="0" type="line"/>
			<point x="699.2568359375" y="0" type="line"/>
			<point x="699.2568359375" y="99.998046875" type="line"/>
			<point x="891.028503418" y="132.998046875" type="line"/>
			<point x="654.6021118164" y="493.7125244141" type="line"/>
			<point x="594.9813842773" y="565.3745117188" type="line"/>
			<point x="594.9813842773" y="565.3745117188" type="line"/>
			<point x="577" y="562" type="line"/>
			<point x="361.5843505859" y="134.998046875" type="line"/>
			<point x="573.1253051758" y="99.998046875" type="line"/>
			<point x="573.1253051758" y="0" type="line"/>
		</contour>
	</outline>
	<anchor name="bottom" x="661" y="0"/>
	<anchor name="top" x="673" y="1500"/>
	<anchor name="cy_descender" x="1386" y="100"/>
	<anchor name="center" x="663" y="811"/>
</glyph>
<glyph name="Y" format="2">
	<unicode hex="0059"/>
	<advance width="1075"/>
	<outline>
		<contour>
			<point x="173.4077148438" y="0" type="line"/>
			<point x="173.4077148438" y="100.998046875" type="line"/>
			<point x="412.7185058594" y="132.998046875" type="line"/>
			<point x="414.7185058594" y="672.6665039062" type="line"/>
			<point x="295.6003417969" y="965.7237548828" type="line"/>
			<point x="111.5310058594" y="1354.2822265625" type="line"/>
			<point x="-60.2404785156" y="1396.2822265625" type="line"/>
			<point x="-60.2404785156" y="1500" type="line"/>
			<point x="456.3734741211" y="1500" type="line"/>
			<point x="456.3734741211" y="1396.2822265625" type="line"/>
			<point x="277.6789550781" y="1363.2822265625" type="line"/>
			<point x="468.2623291016" y="927.4252929688" type="line"/>
			<point x="659" y="783" type="line"/>
			<point x="669" y="783" type="line"/>
			<point x="706.5867919922" y="1093.467590332" type="line"/>
			<point x="831.8421630859" y="1366.2822265625" type="line"/>
			<point x="601.3779907227" y="1396.2822265625" type="line"/>
			<point x="601.3779907227" y="1500" type="line"/>
			<point x="1201.3804931641" y="1500" type="line"/>
			<point x="1201.3804931641" y="1393.2822265625" type="line"/>
			<point x="997.0704345703" y="1364.2822265625" type="line"/>
			<point x="799.1840209961" y="1005.5758056641" type="line"/>
			<point x="591.8928833008" y="606.742980957" type="line"/>
			<point x="591.3122558594" y="132.998046875" type="line"/>
			<point x="830.2384033203" y="100.998046875" type="line"/>
			<point x="830.2384033203" y="0" type="line"/>
		</contour>
	</outline>
	<anchor name="bottom" x="636" y="0"/>
	<anchor name="top" x="640" y="1500"/>
	<anchor name="tonos" x="-100" y="1500"/>
	<anchor name="center" x="636" y="582"/>
</glyph>
<glyph name="d" format="2">
	<unicode hex="0064"/>
	<advance width="1183"/>
	<outline>
		<contour>
			<point x="65.8674316406" y="490.2064208984" type="qcurve" smooth="yes"/>
			<point x="65.8674316406" y="733.0502929688"/>
			<point x="333.9238202495" y="1022.6350097656"/>
			<point x="588.4021468624" y="1022.6350097656" type="qcurve" smooth="yes"/>
			<point x="661.1831448462" y="1022.6350097656"/>
			<point x="793.0268554688" y="987.1428222656"/>
			<point x="813.7463378906" y="978.4152832031" type="qcurve"/>
			<point x="800.4807128906" y="1399.103515625" type="line"/>
			<point x="599.6456298828" y="1432.103515625" type="line"/>
			<point x="599.6456298828" y="1522.0012207031" type="line"/>
			<point x="929.5393066406" y="1534.0012207031" type="line"/>
			<point x="962.5393066406" y="1534.0012207031" type="line"/>
			<point x="982.5393066406" y="1488.0012207031" type="line"/>
			<point x="989.5393066406" y="500.1295166016" type="line"/>
			<point x="994.5393066406" y="105.998046875" type="line"/>
			<point x="1150.2125244141" y="78.998046875" type="line"/>
			<point x="1150.2125244141" y="0" type="line"/>
			<point x="834.2072753906" y="0" type="line"/>
			<point x="822.2346191406" y="16" type="line"/>
			<point x="807.6784825479" y="85.8038330078" type="line"/>
			<point x="781.7542133946" y="43.3950195312"/>
			<point x="616.7276886971" y="-9.8184814453"/>
			<point x="506.2104255922" y="-9.8184814453" type="qcurve" smooth="yes"/>
			<point x="314.7909447454" y="-9.8184814453"/>
			<point x="65.8674316406" y="244.1968994141"/>
		</contour>
		<contour>
			<point x="246.6799316406" y="513.9080810547" type="qcurve" smooth="yes"/>
			<point x="246.6799316406" y="404.3031005859"/>
			<point x="409.6604003906" y="103.3549804688"/>
			<point x="566.6604003906" y="102.9290771484" type="qcurve" smooth="yes"/>
			<point x="667.9162597656" y="102.5031738281"/>
			<point x="801.5646972656" y="156.4398193359"/>
			<point x="848.7893066406" y="215.93359375" type="qcurve"/>
			<point x="854.7072753906" y="513.3614501953" type="line"/>
			<point x="856.7072753906" y="799.1087646484" type="line"/>
			<point x="814.2053222656" y="857.82421875"/>
			<point x="671.9924316406" y="931.7205810547"/>
			<point x="567.0178222656" y="930.7205810547" type="qcurve" smooth="yes"/>
			<point x="403.0178222656" y="929.7205810547"/>
			<point x="246.6799316406" y="570.1400146484"/>
		</contour>
	</outline>
	<anchor name="bottom" x="604" y="0"/>
	<anchor name="center" x="876" y="1202"/>
	<anchor name="top" x="604" y="1534"/>
	<anchor name="topright" x="961" y="1000"/>
	<anchor name="liga" x="1207" y="0"/>
</glyph>
<glyph name="g" format="2">
	<unicode hex="0067"/>
	<advance width="894"/>
	<outline>
		<contour>
			<point x="-0.7817382812" y="-227.2966308594" type="qcurve" smooth="yes"/>
			<point x="-0.7817382812" y="-144.3736572266"/>
			<point x="126" y="-51"/>
			<point x="233" y="2" type="qcurve"/>
			<point x="340" y="-21" type="line"/>
			<point x="240" y="-84"/>
			<point x="108.4682617188" y="-197.5540771484"/>
			<point x="108.4682617188" y="-222.005859375" type="qcurve" smooth="yes"/>
			<point x="108.4682617188" y="-333.0517578125"/>
			<point x="240.79296875" y="-408.2517089844"/>
			<point x="498.5672607422" y="-408.2517089844" type="qcurve" smooth="yes"/>
			<point x="642.9125976562" y="-408.2517089844"/>
			<point x="865.0955810547" y="-349.6488037109"/>
			<point x="865.0955810547" y="-249.009765625" type="qcurve" smooth="yes"/>
			<point x="865.0955810547" y="-168.8732910156"/>
			<point x="601.6352539062" y="-76.8568115234"/>
			<point x="361.0991210938" y="-46.5903320312" type="qcurve" smooth="yes"/>
			<point x="197.4702148438" y="-13.2535400391"/>
			<point x="28.1081936743" y="74.7764892578"/>
			<point x="28.1081936743" y="153.5578613281" type="qcurve" smooth="yes"/>
			<point x="28.1081936743" y="192.7012191281"/>
			<point x="161.1470907888" y="319.9386143839"/>
			<point x="268.3428443171" y="361.1694335938" type="qcurve"/>
			<point x="290.6697998047" y="313.0731201172" type="line"/>
			<point x="213.3822021484" y="280.0397949219"/>
			<point x="106.5678710938" y="231.3675537109"/>
			<point x="106.5678710938" y="172.2852783203" type="qcurve" smooth="yes"/>
			<point x="106.5678710938" y="126.7105712891"/>
			<point x="304.9416976437" y="127.3088378906"/>
			<point x="497.1935641382" y="98.5346679688" type="qcurve" smooth="yes"/>
			<point x="762.7521893901" y="61.6433105469"/>
			<point x="998.2205810547" y="-13.8083496094"/>
			<point x="997.5330810547" y="-166.4093017578" type="qcurve" smooth="yes"/>
			<point x="996.8455810547" y="-312.4979248047"/>
			<point x="738.9925537109" y="-491.8793945312"/>
			<point x="455.0698242188" y="-491.8793945312" type="qcurve" smooth="yes"/>
			<point x="206.2084960938" y="-491.8793945312"/>
			<point x="-0.7817382812" y="-350.4675292969"/>
		</contour>
		<contour>
			<point x="51.2846679688" y="644.6030273438" type="qcurve" smooth="yes"/>
			<point x="51.2846679688" y="814.8463134766"/>
			<point x="256.6303710938" y="1024.4591064453"/>
			<point x="429.3862304688" y="1024.4591064453" type="qcurve" smooth="yes"/>
			<point x="618.6420898438" y="1024.4591064453"/>
			<point x="828.5991210938" y="820.8463134766"/>
			<point x="829.5991210938" y="649.8297119141" type="qcurve" smooth="yes"/>
			<point x="830.5991210938" y="478.6773681641"/>
			<point x="617.6791992188" y="222.5837402344"/>
			<point x="444.7280273438" y="222.5837402344" type="qcurve" smooth="yes"/>
			<point x="260.3061523438" y="222.5837402344"/>
			<point x="51.2846679688" y="454.5864257812"/>
		</contour>
		<contour>
			<point x="223.7221679688" y="659.0322265625" type="qcurve" smooth="yes"/>
			<point x="223.7221679688" y="591.1913452148"/>
			<point x="341.1108398438" y="318.0445556641"/>
			<point x="455.1108398438" y="318.0445556641" type="qcurve" smooth="yes"/>
			<point x="562.1108398438" y="318.0445556641"/>
			<point x="662.7866210938" y="588.0289916992"/>
			<point x="662.7866210938" y="653.8698730469" type="qcurve" smooth="yes"/>
			<point x="662.7866210938" y="715.7107543945"/>
			<point x="543.3706054688" y="921.8874511719"/>
			<point x="426.3706054688" y="921.8874511719" type="qcurve" smooth="yes"/>
			<point x="330.3706054688" y="921.8874511719"/>
			<point x="223.7221679688" y="712.8731079102"/>
		</contour>
		<contour>
			<point x="540" y="925" type="line"/>
			<point x="540" y="1000" type="line"/>
			<point x="883.4721679688" y="1105.5493164062" type="line"/>
			<point x="883.4721679688" y="914.9029541016" type="line"/>
		</contour>
	</outline>
	<anchor name="bottom" x="524" y="-416"/>
	<anchor name="top" x="484" y="1000"/>
</glyph>
<glyph name="h" format="2">
	<unicode hex="0068"/>
	<advance width="1291"/>
	<outline>
		<contour>
			<point x="60.3375854492" y="0" type="line"/>
			<point x="60.3375854492" y="78.998046875" type="line"/>
			<point x="206.2811889648" y="106.998046875" type="line"/>
			<point x="208.2811889648" y="518.9522705078" type="line"/>
			<point x="198.2811889648" y="1400.103515625" type="line"/>
			<point x="139.2811889648" y="1435.103515625" type="line"/>
			<point x="139.2811889648" y="1522.0012207031" type="line"/>
			<point x="295.2811889648" y="1535.0012207031" type="line"/>
			<point x="330.2811889648" y="1535.0012207031" type="line"/>
			<point x="371.2811889648" y="1487.0012207031" type="line"/>
			<point x="363.2811889648" y="845.4410400391" type="line"/>
			<point x="392.5015258789" y="907.0733642578"/>
			<point x="587.8826293945" y="1024.0034179688"/>
			<point x="724.5413208008" y="1024.0034179688" type="qcurve" smooth="yes"/>
			<point x="896.0686645508" y="1024.0034179688"/>
			<point x="1070.819152832" y="886.7414550781"/>
			<point x="1070.819152832" y="783.1905517578" type="qcurve" smooth="yes"/>
			<point x="1070.819152832" y="711.7360839844"/>
			<point x="1098.6383056641" y="670.9045410156"/>
			<point x="1098.6383056641" y="670.9045410156" type="qcurve"/>
			<point x="1073.819152832" y="105.998046875" type="line"/>
			<point x="1227.8167114258" y="78.998046875" type="line"/>
			<point x="1227.8167114258" y="0" type="line"/>
			<point x="767.0650024414" y="0" type="line"/>
			<point x="767.0650024414" y="71.998046875" type="line"/>
			<point x="890.819152832" y="98.998046875" type="line"/>
			<point x="892.819152832" y="521.9522705078" type="line"/>
			<point x="892.819152832" y="734.6112060547" type="line" smooth="yes"/>
			<point x="892.819152832" y="809.1380615234"/>
			<point x="793.1109008789" y="862.9453125"/>
			<point x="690.1074829102" y="862.9453125" type="qcurve" smooth="yes"/>
			<point x="604.1032104492" y="862.9453125"/>
			<point x="426.0508422852" y="809.3869628906"/>
			<point x="373.2811889648" y="729.638671875" type="qcurve"/>
			<point x="373.2811889648" y="523.7255859375" type="line"/>
			<point x="375.2811889648" y="106.998046875" type="line"/>
			<point x="507.5221557617" y="78.998046875" type="line"/>
			<point x="507.5221557617" y="0" type="line"/>
		</contour>
	</outline>
	<anchor name="bottom" x="629" y="0"/>
	<anchor name="center" x="347" y="1202"/>
	<anchor name="top" x="304" y="1534"/>
</glyph>
<glyph name="k" format="2">
	<unicode hex="006B"/>
	<advance width="1153"/>
	<outline>
		<contour>
			<point x="74.9085693359" y="0" type="line"/>
			<point x="74.9085693359" y="78.998046875" type="line"/>
			<point x="221.8521728516" y="106.998046875" type="line"/>
			<point x="221.8521728516" y="482" type="line"/>
			<point x="212.8521728516" y="1399.103515625" type="line"/>
			<point x="41.6927490234" y="1435.103515625" type="line"/>
			<point x="41.6927490234" y="1508.4880371094" type="line"/>
			<point x="304.7271728516" y="1536.0012207031" type="line"/>
			<point x="340.7271728516" y="1536.0012207031" type="line"/>
			<point x="381.7271728516" y="1487.0012207031" type="line"/>
			<point x="383.7271728516" y="551" type="line"/>
			<point x="386.7271728516" y="107.998046875" type="line"/>
			<point x="518.9681396484" y="78.998046875" type="line"/>
			<point x="518.9681396484" y="0" type="line"/>
		</contour>
		<contour>
			<point x="303" y="376" type="line"/>
			<point x="303" y="490" type="line"/>
			<point x="777.2467041016" y="889.0515136719" type="line"/>
			<point x="672.2467041016" y="919.0515136719" type="line"/>
			<point x="672.2467041016" y="1003.5493164062" type="line"/>
			<point x="976.1411132812" y="1003.5493164062" type="line"/>
			<point x="976.1411132812" y="919.0515136719" type="line"/>
			<point x="875.1411132812" y="889.0515136719" type="line"/>
		</contour>
		<contour>
			<point x="483.594543457" y="605.6045532227" type="line"/>
			<point x="596.434753418" y="733.6577148438" type="line"/>
			<point x="1058.6544799805" y="105.998046875" type="line"/>
			<point x="1159.5993041992" y="78.998046875" type="line"/>
			<point x="1159.5993041992" y="0" type="line"/>
			<point x="830.6010131836" y="0" type="line"/>
			<point x="824.4013061523" y="73.6480712891" type="line"/>
			<point x="872.4013061523" y="106.6480712891" type="line"/>
		</contour>
	</outline>
	<anchor name="bottom" x="608" y="0"/>
	<anchor name="top" x="578" y="1534"/>
</glyph>
<glyph name="l" format="2">
	<unicode hex="006C"/>
	<advance width="657"/>
	<outline>
		<contour>
			<point x="82.1090698242" y="0" type="line"/>
			<point x="82.1090698242" y="78.998046875" type="line"/>
			<point x="250.5658569336" y="105.998046875" type="line"/>
			<point x="253.5658569336" y="482" type="line"/>
			<point x="243.5658569336" y="1400.103515625" type="line"/>
			<point x="59.8932495117" y="1433.103515625" type="line"/>
			<point x="59.8932495117" y="1522.0012207031" type="line"/>
			<point x="340.5658569336" y="1535.0012207031" type="line"/>
			<point x="374.5658569336" y="1535.0012207031" type="line"/>
			<point x="416.5658569336" y="1487.0012207031" type="line"/>
			<point x="418.5658569336" y="486" type="line"/>
			<point x="420.5658569336" y="105.998046875" type="line"/>
			<point x="590.3200073242" y="78.998046875" type="line"/>
			<point x="590.3200073242" y="0" type="line"/>
		</contour>
	</outline>
	<anchor name="bottom" x="316" y="0"/>
	<anchor name="center" x="316" y="750"/>
	<anchor name="top" x="316" y="1534"/>
	<anchor name="topright" x="367" y="1000"/>
	<anchor name="centerright" x="746" y="680"/>
	<anchor name="yu_dash" x="321" y="500"/>
	<anchor name="liga" x="632" y="0"/>
</glyph>
<glyph name="m" format="2">
	<unicode hex="006D"/>
	<advance width="2034"/>
	<outline>
		<contour>
			<point x="76.8544311523" y="0" type="line"/>
			<point x="76.8544311523" y="78.998046875" type="line"/>
			<point x="225.8519897461" y="105.998046875" type="line"/>
			<point x="228.8519897461" y="540.0428466797" type="line"/>
			<point x="223.8519897461" y="855.6516113281" type="line"/>
			<point x="71.8544311523" y="890.6516113281" type="line"/>
			<point x="71.8544311523" y="976.5493164062" type="line"/>
			<point x="332.0349731445" y="1018.5493164062" type="line"/>
			<point x="382.7385864258" y="985.5493164062" type="line"/>
			<point x="383.1644897461" y="859.4587402344" type="line"/>
			<point x="424.4330444336" y="911.4587402344"/>
			<point x="624.223449707" y="1023.4591064453"/>
			<point x="764.7583618164" y="1023.4591064453" type="qcurve" smooth="yes"/>
			<point x="933.4492797852" y="1023.4591064453"/>
			<point x="1072.737121582" y="934.4591064453"/>
			<point x="1085.5238647461" y="877.7091064453" type="qcurve"/>
			<point x="1126.4121704102" y="926.4591064453"/>
			<point x="1364.8439331055" y="1023.4591064453"/>
			<point x="1473.4362182617" y="1023.4591064453" type="qcurve" smooth="yes"/>
			<point x="1643.1874389648" y="1023.4591064453"/>
			<point x="1813.0923461914" y="866.4587402344"/>
			<point x="1813.0923461914" y="752.4587402344" type="qcurve" smooth="yes"/>
			<point x="1813.0923461914" y="718.1387939453"/>
			<point x="1812.0065307617" y="628.7255859375"/>
			<point x="1811.7798461914" y="596.9522705078" type="qcurve" smooth="yes"/>
			<point x="1816.7798461914" y="105.998046875" type="line"/>
			<point x="1970.7774047852" y="78.998046875" type="line"/>
			<point x="1970.7774047852" y="0" type="line"/>
			<point x="1514.1506958008" y="0" type="line"/>
			<point x="1514.1506958008" y="70.998046875" type="line"/>
			<point x="1637.9048461914" y="98.998046875" type="line"/>
			<point x="1640.756652832" y="520.9522705078" type="line"/>
			<point x="1645.6571655273" y="729.3452148438" type="line" smooth="yes"/>
			<point x="1647.6173706055" y="821.3452148438"/>
			<point x="1536.7431030273" y="854.3455810547"/>
			<point x="1434.7197875977" y="854.3455810547" type="qcurve" smooth="yes"/>
			<point x="1336.8209838867" y="854.3455810547"/>
			<point x="1136.883605957" y="790.9422607422"/>
			<point x="1097.6198120117" y="761.2805175781" type="qcurve"/>
			<point x="1093.6994018555" y="779.34375"/>
			<point x="1092.9808959961" y="549.7255859375"/>
			<point x="1092.2933959961" y="521.9522705078" type="qcurve" smooth="yes"/>
			<point x="1094.7192993164" y="105.998046875" type="line"/>
			<point x="1233.7168579102" y="78.998046875" type="line"/>
			<point x="1233.7168579102" y="0" type="line"/>
			<point x="807.7151489258" y="0" type="line"/>
			<point x="807.7151489258" y="71.998046875" type="line"/>
			<point x="931.4692993164" y="98.998046875" type="line"/>
			<point x="933.4692993164" y="521.9522705078" type="line"/>
			<point x="933.4692993164" y="729.3452148438" type="line" smooth="yes"/>
			<point x="933.4692993164" y="821.3452148438"/>
			<point x="823.1890258789" y="854.3455810547"/>
			<point x="726.4722290039" y="854.3455810547" type="qcurve" smooth="yes"/>
			<point x="631.6271362305" y="854.3455810547"/>
			<point x="435.2813110352" y="780.3227539062"/>
			<point x="393.1644897461" y="745.7803955078" type="qcurve"/>
			<point x="393.1644897461" y="523.9522705078" type="line"/>
			<point x="395.1644897461" y="105.998046875" type="line"/>
			<point x="527.405456543" y="78.998046875" type="line"/>
			<point x="527.405456543" y="0" type="line"/>
		</contour>
	</outline>
	<anchor name="bottom" x="958" y="0"/>
	<anchor name="top" x="958" y="1000"/>
</glyph>
<glyph name="n" format="2">
	<unicode hex="006E"/>
	<advance width="1280"/>
	<outline>
		<contour>
			<point x="77" y="0" type="line"/>
			<point x="77" y="79" type="line"/>
			<point x="226" y="114" type="line"/>
			<point x="229" y="540" type="line"/>
			<point x="224" y="849" type="line"/>
			<point x="72" y="891" type="line"/>
			<point x="72" y="964" type="line"/>
			<point x="335" y="1019" type="line"/>
			<point x="384" y="986" type="line"/>
			<point x="387" y="811" type="line"/>
			<point x="419" y="881"/>
			<point x="612" y="1024"/>
			<point x="757" y="1024" type="qcurve" smooth="yes"/>
			<point x="919" y="1024"/>
			<point x="1060" y="867"/>
			<point x="1060" y="754" type="qcurve" smooth="yes"/>
			<point x="1060" y="719"/>
			<point x="1058" y="640"/>
			<point x="1058" y="597" type="qcurve" smooth="yes"/>
			<point x="1063" y="114" type="line"/>
			<point x="1217" y="79" type="line"/>
			<point x="1217" y="0" type="line"/>
			<point x="757" y="0" type="line"/>
			<point x="757" y="71" type="line"/>
			<point x="880" y="106" type="line"/>
			<point x="882" y="522" type="line"/>
			<point x="882" y="733" type="line" smooth="yes"/>
			<point x="882" y="821"/>
			<point x="784" y="848"/>
			<point x="689" y="848" type="qcurve" smooth="yes"/>
			<point x="594" y="848"/>
			<point x="422" y="765"/>
			<point x="394" y="717" type="qcurve"/>
			<point x="394" y="524" type="line"/>
			<point x="396" y="114" type="line"/>
			<point x="528" y="79" type="line"/>
			<point x="528" y="0" type="line"/>
		</contour>
	</outline>
	<anchor name="bottom" x="632" y="0"/>
	<anchor name="top" x="632" y="1000"/>
	<anchor name="liga" x="1264" y="0"/>
</glyph>
<glyph name="o" format="2">
	<unicode hex="006F"/>
	<advance width="1171"/>
	<outline>
		<contour>
			<point x="64.0007324219" y="502.9080810547" type="qcurve" smooth="yes"/>
			<point x="64.0007324219" y="750.3913574219"/>
			<point x="345.7292480469" y="1029.0034179688"/>
			<point x="583.0983886719" y="1029.0034179688" type="qcurve" smooth="yes"/>
			<point x="821.8425292969" y="1029.0034179688"/>
			<point x="1107.2663574219" y="761.8447265625"/>
			<point x="1107.2663574219" y="508.9080810547" type="qcurve" smooth="yes"/>
			<point x="1107.2663574219" y="265.9266357422"/>
			<point x="827.1140136719" y="-12.0007324219"/>
			<point x="588.0573730469" y="-12.0007324219" type="qcurve" smooth="yes"/>
			<point x="347.2995605469" y="-12.0007324219"/>
			<point x="64.0007324219" y="264.2913818359"/>
		</contour>
		<contour>
			<point x="247.0632324219" y="500.9990234375" type="qcurve" smooth="yes"/>
			<point x="247.0632324219" y="413.9050292969"/>
			<point x="433.0437011719" y="93.8673095703"/>
			<point x="585.0437011719" y="93.8673095703" type="qcurve" smooth="yes"/>
			<point x="748.0437011719" y="93.8673095703"/>
			<point x="921.0788574219" y="398.4214477539"/>
			<point x="921.0788574219" y="498.9080810547" type="qcurve" smooth="yes"/>
			<point x="921.0788574219" y="644.5122680664"/>
			<point x="734.0437011719" y="912.5799560547"/>
			<point x="585.0437011719" y="912.5799560547" type="qcurve" smooth="yes"/>
			<point x="423.0437011719" y="912.5799560547"/>
			<point x="247.0632324219" y="681.9762573242"/>
		</contour>
	</outline>
	<anchor name="bottom" x="584" y="0"/>
	<anchor name="center" x="584" y="500"/>
	<anchor name="ogonek" x="747" y="0"/>
	<anchor name="top" x="584" y="1000"/>
	<anchor name="topright" x="751" y="1000"/>
	<anchor name="GRKtop" x="584" y="1000"/>
	<anchor name="yu_dash" x="150" y="500"/>
</glyph>
<glyph name="p" format="2">
	<unicode hex="0070"/>
	<advance width="1170"/>
	<outline>
		<contour>
			<point x="47.8046264648" y="-479.9951171875" type="line"/>
			<point x="47.8046264648" y="-400.9970703125" type="line"/>
			<point x="211.4238891602" y="-365.9970703125" type="line"/>
			<point x="213.4238891602" y="405.7746582031" type="line"/>
			<point x="211.4238891602" y="855.6516113281" type="line"/>
			<point x="56.4263305664" y="890.6516113281" type="line"/>
			<point x="56.4263305664" y="963.7117919922" type="line"/>
			<point x="355.8613891602" y="1018.5493164062" type="line"/>
			<point x="371.8613891602" y="1007.5493164062" type="line"/>
			<point x="373.8613891602" y="918.1862792969" type="line"/>
			<point x="364.5567016602" y="949.5822753906"/>
			<point x="560.3789672852" y="1027.6350097656"/>
			<point x="724.7266235352" y="1027.6350097656" type="qcurve" smooth="yes"/>
			<point x="897.2581176758" y="1027.6350097656"/>
			<point x="1102.0645141602" y="772.1424560547"/>
			<point x="1102.0645141602" y="516.3199462891" type="qcurve" smooth="yes"/>
			<point x="1102.0645141602" y="269.4320068359"/>
			<point x="848.9296264648" y="-19.0913085938"/>
			<point x="671.9824829102" y="-19.0913085938" type="qcurve" smooth="yes"/>
			<point x="529.7344360352" y="-19.0913085938"/>
			<point x="371.9219360352" y="21.6246337891"/>
			<point x="380.8613891602" y="44.0905761719" type="qcurve"/>
			<point x="382.8613891602" y="-365.9970703125" type="line"/>
			<point x="595.5615844727" y="-400.9970703125" type="line"/>
			<point x="595.5615844727" y="-479.9951171875" type="line"/>
		</contour>
		<contour>
			<point x="378.8613891602" y="175.8688964844" type="line"/>
			<point x="403.7012329102" y="134.03125"/>
			<point x="548.9199829102" y="79.7032470703"/>
			<point x="628.1133422852" y="79.7032470703" type="qcurve" smooth="yes"/>
			<point x="767.1133422852" y="79.7032470703"/>
			<point x="933.6270141602" y="384.3999023438"/>
			<point x="933.6270141602" y="496.7746582031" type="qcurve" smooth="yes"/>
			<point x="933.6270141602" y="646.0933227539"/>
			<point x="808.7715454102" y="929.4705810547"/>
			<point x="652.7715454102" y="929.4705810547" type="qcurve" smooth="yes"/>
			<point x="546.7149047852" y="929.4705810547"/>
			<point x="419.5723266602" y="834.1524658203"/>
			<point x="376.8613891602" y="796.7340087891" type="qcurve"/>
			<point x="379.8613891602" y="424.7746582031" type="line"/>
		</contour>
	</outline>
	<anchor name="bottom" x="599" y="0"/>
	<anchor name="top" x="599" y="1000"/>
</glyph>
<glyph name="q" format="2">
	<unicode hex="0071"/>
	<advance width="1208"/>
	<outline>
		<contour>
			<point x="69.6008300781" y="495.0013427734" type="qcurve" smooth="yes"/>
			<point x="69.6008300781" y="752.2980957031"/>
			<point x="322.6164550781" y="1023.6350097656"/>
			<point x="513.2355957031" y="1023.6350097656" type="qcurve" smooth="yes"/>
			<point x="621.9543457031" y="1023.6350097656"/>
			<point x="817.1574707031" y="963.5090332031"/>
			<point x="811.3371582031" y="963.1256103516" type="qcurve"/>
			<point x="847.3371582031" y="1019.8161621094" type="line"/>
			<point x="1152.0943603516" y="977.8161621094" type="line"/>
			<point x="1152.0943603516" y="893.2684326172" type="line"/>
			<point x="994.4211425781" y="861.2684326172" type="line"/>
			<point x="994.4211425781" y="403.1878662109" type="line"/>
			<point x="1009.4211425781" y="-366.9970703125" type="line"/>
			<point x="1184.1213378906" y="-401.9970703125" type="line"/>
			<point x="1184.1213378906" y="-479.9951171875" type="line"/>
			<point x="650.9696044922" y="-479.9951171875" type="line"/>
			<point x="650.9696044922" y="-391.9970703125" type="line"/>
			<point x="836.8586425781" y="-358.9970703125" type="line"/>
			<point x="838.8586425781" y="39.9418945312" type="line"/>
			<point x="796.9387207031" y="17.5267333984"/>
			<point x="636.8977050781" y="-9.8184814453"/>
			<point x="552.5617675781" y="-9.8184814453" type="qcurve" smooth="yes"/>
			<point x="354.3156738281" y="-9.8184814453"/>
			<point x="69.6008300781" y="219.4307861328"/>
		</contour>
		<contour>
			<point x="253.4758300781" y="506.9080810547" type="qcurve" smooth="yes"/>
			<point x="253.4758300781" y="402.3422851562"/>
			<point x="426.9211425781" y="90.4406738281"/>
			<point x="584.9211425781" y="90.4406738281" type="qcurve" smooth="yes"/>
			<point x="665.0324707031" y="90.4406738281"/>
			<point x="799.3371582031" y="119.8420410156"/>
			<point x="834.8586425781" y="168.9930419922" type="qcurve"/>
			<point x="836.8586425781" y="803.0705566406" type="line"/>
			<point x="802.3371582031" y="850.3536376953"/>
			<point x="671.8820800781" y="892.1671142578"/>
			<point x="578.7160644531" y="892.1671142578" type="qcurve" smooth="yes"/>
			<point x="430.7160644531" y="892.1671142578"/>
			<point x="253.4758300781" y="572.1400146484"/>
		</contour>
	</outline>
	<anchor name="bottom" x="594" y="0"/>
	<anchor name="top" x="594" y="1000"/>
</glyph>
<glyph name="u" format="2">
	<unicode hex="0075"/>
	<advance width="1266"/>
	<outline>
		<contour>
			<point x="48.2838134766" y="887.384765625" type="line"/>
			<point x="48.2838134766" y="974.2824707031" type="line"/>
			<point x="281.2188720703" y="1013.2824707031" type="line"/>
			<point x="336.2188720703" y="1013.2824707031" type="line"/>
			<point x="370.2188720703" y="967.2824707031" type="line"/>
			<point x="368.2188720703" y="483.4663085938" type="line"/>
			<point x="368.2188720703" y="274.2194824219" type="line" smooth="yes"/>
			<point x="368.2188720703" y="199.8444824219"/>
			<point x="497.9138183594" y="129.6850585938"/>
			<point x="586.9954833984" y="129.6850585938" type="qcurve" smooth="yes"/>
			<point x="672.7220458984" y="129.6850585938"/>
			<point x="801.3741455078" y="169.7194824219"/>
			<point x="852.3394775391" y="201.7194824219" type="qcurve"/>
			<point x="852.3394775391" y="483.4663085938" type="line"/>
			<point x="854.3394775391" y="857.384765625" type="line"/>
			<point x="717.0985107422" y="887.384765625" type="line"/>
			<point x="717.0985107422" y="974.2824707031" type="line"/>
			<point x="932.9644775391" y="1011.2824707031" type="line"/>
			<point x="990.9644775391" y="1011.2824707031" type="line"/>
			<point x="1028.9644775391" y="963.2824707031" type="line"/>
			<point x="1025.9644775391" y="483.4663085938" type="line"/>
			<point x="1027.9644775391" y="134.3979492188" type="line"/>
			<point x="1200.9620361328" y="104.3979492188" type="line"/>
			<point x="1200.9620361328" y="20" type="line"/>
			<point x="945.3394775391" y="-14" type="line"/>
			<point x="888.3394775391" y="33" type="line"/>
			<point x="867.5894775391" y="114.9996337891" type="line"/>
			<point x="811.3486328125" y="54.9996337891"/>
			<point x="647.1082763672" y="-3.9097900391"/>
			<point x="540.8590087891" y="-3.9097900391" type="qcurve" smooth="yes"/>
			<point x="388.9138183594" y="-3.9097900391"/>
			<point x="206.2813720703" y="148.9282226562"/>
			<point x="206.2813720703" y="252.9996337891" type="qcurve" smooth="yes"/>
			<point x="206.2813720703" y="317.4128417969"/>
			<point x="207.0546875" y="472.9196777344"/>
			<point x="206.2813720703" y="511.4663085938" type="qcurve" smooth="yes"/>
			<point x="200.2813720703" y="854.384765625" type="line"/>
		</contour>
	</outline>
	<anchor name="bottom" x="622" y="0"/>
	<anchor name="ogonek" x="1030" y="20"/>
	<anchor name="top" x="622" y="1000"/>
	<anchor name="topright" x="1005" y="1000"/>
	<anchor name="cy_descender" x="1178" y="80"/>
</glyph>
<glyph name="w" format="2">
	<unicode hex="0077"/>
	<advance width="1710"/>
	<outline>
		<contour>
			<point x="450.9283447266" y="-0.7275390625" type="line"/>
			<point x="266.0841064453" y="528.2243652344" type="line"/>
			<point x="106.903503418" y="894.0515136719" type="line"/>
			<point x="-26.3110961914" y="919.0515136719" type="line"/>
			<point x="-26.3110961914" y="1003.5493164062" type="line"/>
			<point x="414.8497924805" y="1003.5493164062" type="line"/>
			<point x="414.8497924805" y="919.0515136719" type="line"/>
			<point x="313.2568969727" y="894.0515136719" type="line"/>
			<point x="451.0504150391" y="505.9320068359" type="line"/>
			<point x="483" y="294" type="line"/>
			<point x="521" y="180" type="line"/>
			<point x="531" y="180" type="line"/>
			<point x="568" y="294" type="line"/>
			<point x="667.8352050781" y="363.2157592773" type="line"/>
			<point x="725" y="747" type="line"/>
			<point x="690.7282714844" y="895.0515136719" type="line"/>
			<point x="594.2702636719" y="919.0515136719" type="line"/>
			<point x="594.2702636719" y="1003.5493164062" type="line"/>
			<point x="1031.3695068359" y="1003.5493164062" type="line"/>
			<point x="1031.3695068359" y="919.0515136719" type="line"/>
			<point x="904.7766113281" y="884.0515136719" type="line"/>
			<point x="1078.874206543" y="392.0244140625" type="line"/>
			<point x="1045" y="294" type="line"/>
			<point x="1082" y="180" type="line"/>
			<point x="1092" y="180" type="line"/>
			<point x="1128" y="294" type="line"/>
			<point x="1315.4565429688" y="504.0836791992" type="line"/>
			<point x="1449.6872558594" y="895.0515136719" type="line"/>
			<point x="1306.3917236328" y="919.0515136719" type="line"/>
			<point x="1306.3917236328" y="1003.5493164062" type="line"/>
			<point x="1748.6591796875" y="1003.5493164062" type="line"/>
			<point x="1748.6591796875" y="919.0515136719" type="line"/>
			<point x="1578.1748046875" y="899.0515136719" type="line"/>
			<point x="1308" y="496" type="line"/>
			<point x="1296.1676635742" y="-0.7275390625" type="line"/>
			<point x="1058.2431640625" y="-0.7275390625" type="line"/>
			<point x="830" y="480" type="line"/>
			<point x="790" y="595" type="line"/>
			<point x="780" y="595" type="line"/>
			<point x="741" y="480" type="line"/>
			<point x="675.8689575195" y="-0.7275390625" type="line"/>
		</contour>
	</outline>
	<anchor name="bottom" x="787" y="0"/>
	<anchor name="top" x="787" y="1000"/>
</glyph>
<glyph name="x" format="2">
	<unicode hex="0078"/>
	<advance width="1028"/>
	<outline>
		<contour>
			<point x="-10.4846801758" y="0" type="line"/>
			<point x="-10.4846801758" y="78.998046875" type="line"/>
			<point x="152.4865112305" y="112.998046875" type="line"/>
			<point x="381.7867431641" y="417.4100952148" type="line"/>
			<point x="98.9209594727" y="884.0515136719" type="line"/>
			<point x="-12.5370483398" y="919.0515136719" type="line"/>
			<point x="-12.5370483398" y="1003.5493164062" type="line"/>
			<point x="391.1322631836" y="1003.5493164062" type="line"/>
			<point x="391.1322631836" y="919.0515136719" type="line"/>
			<point x="277.2959594727" y="885.0515136719" type="line"/>
			<point x="452.8803100586" y="684.4733276367" type="line"/>
			<point x="512.5894165039" y="632.1522827148" type="line"/>
			<point x="512.5894165039" y="632.1522827148" type="line"/>
			<point x="569.0768432617" y="693.905456543" type="line"/>
			<point x="708.7700195312" y="888.0515136719" type="line"/>
			<point x="572.4744873047" y="919.0515136719" type="line"/>
			<point x="572.4744873047" y="1003.5493164062" type="line"/>
			<point x="962.0743408203" y="1003.5493164062" type="line"/>
			<point x="962.0743408203" y="919.0515136719" type="line"/>
			<point x="830.8597412109" y="886.0515136719" type="line"/>
			<point x="591.9735107422" y="579.7139892578" type="line"/>
			<point x="915.8177490234" y="114.998046875" type="line"/>
			<point x="1039.7080078125" y="78.998046875" type="line"/>
			<point x="1039.7080078125" y="0" type="line"/>
			<point x="577.9189453125" y="0" type="line"/>
			<point x="577.9189453125" y="78.998046875" type="line"/>
			<point x="700.7552490234" y="108.998046875" type="line"/>
			<point x="522.1844482422" y="315.8251953125" type="line"/>
			<point x="462.9157104492" y="365.7274780273" type="line"/>
			<point x="462.9157104492" y="365.7274780273" type="line"/>
			<point x="420.208190918" y="299.3718261719" type="line"/>
			<point x="289.5762329102" y="114.998046875" type="line"/>
			<point x="421.1151733398" y="78.998046875" type="line"/>
			<point x="421.1151733398" y="0" type="line"/>
		</contour>
	</outline>
	<anchor name="bottom" x="522" y="0"/>
	<anchor name="top" x="522" y="1000"/>
	<anchor name="cy_descender" x="1043" y="80"/>
</glyph>
<glyph name="y" format="2">
	<unicode hex="0079"/>
	<advance width="948"/>
	<outline>
		<contour>
			<point x="-10.537902832" y="919.0515136719" type="line"/>
			<point x="-10.537902832" y="1003.5493164062" type="line"/>
			<point x="405.8759155273" y="1003.5493164062" type="line"/>
			<point x="405.8759155273" y="919.0515136719" type="line"/>
			<point x="262.2830200195" y="893.0515136719" type="line"/>
			<point x="383.1361694336" y="553.6904907227" type="line"/>
			<point x="463.631652832" y="171.7613525391" type="line"/>
			<point x="485.3641357422" y="55.1284790039" type="line"/>
			<point x="485.3641357422" y="55.1284790039" type="line"/>
			<point x="521.7715454102" y="167.5640258789" type="line"/>
			<point x="667.1443481445" y="606.4774780273" type="line"/>
			<point x="788.9196166992" y="893.0515136719" type="line"/>
			<point x="642.6240844727" y="919.0515136719" type="line"/>
			<point x="642.6240844727" y="1003.5493164062" type="line"/>
			<point x="1071.1929931641" y="1003.5493164062" type="line"/>
			<point x="1071.1929931641" y="919.0515136719" type="line"/>
			<point x="903.7086181641" y="897.0515136719" type="line"/>
			<point x="773.6330566406" y="566.6268310547" type="line"/>
			<point x="481.1741943359" y="-168.240234375" type="line" smooth="yes"/>
			<point x="458.707824707" y="-322.8165283203"/>
			<point x="362.2420654297" y="-508.5151367188"/>
			<point x="250.9214477539" y="-508.5151367188" type="qcurve"/>
			<point x="80.6605834961" y="-428.58984375" type="line"/>
			<point x="80.6605834961" y="-320.0916748047" type="line"/>
			<point x="220.89453125" y="-327.0916748047" type="line" smooth="yes"/>
			<point x="276.5444335938" y="-335.0916748047"/>
			<point x="350.8299560547" y="-254.1739501953"/>
			<point x="372.0416870117" y="-217.3696289062" type="qcurve" smooth="yes"/>
			<point x="176.4172363281" y="25.7135009766" type="line"/>
			<point x="607.912109375" y="25.7135009766" type="line"/>
			<point x="206.8297729492" y="575.5053100586" type="line"/>
			<point x="118.6766967773" y="894.0515136719" type="line"/>
		</contour>
	</outline>
	<anchor name="bottom" x="782" y="0"/>
	<anchor name="top" x="524" y="1000"/>
</glyph>
<glyph name="z" format="2">
	<unicode hex="007A"/>
	<advance width="926"/>
	<outline>
		<contour>
			<point x="57.3645629883" y="0" type="line"/>
			<point x="57.3645629883" y="103.072265625" type="line"/>
			<point x="650.5421142578" y="889.1258544922" type="line"/>
			<point x="211.205078125" y="889.1258544922" type="line"/>
			<point x="150.7231445312" y="702.6704101562" type="line"/>
			<point x="50.7241210938" y="702.6704101562" type="line"/>
			<point x="50.7241210938" y="1003.5493164062" type="line"/>
			<point x="852.3278198242" y="1003.5493164062" type="line"/>
			<point x="852.3278198242" y="898.8842773438" type="line"/>
			<point x="236.6799926758" y="114.4234619141" type="line"/>
			<point x="721.4349365234" y="114.4234619141" type="line"/>
			<point x="793.9168701172" y="302.87890625" type="line"/>
			<point x="892.9158935547" y="302.87890625" type="line"/>
			<point x="892.9158935547" y="0" type="line"/>
		</contour>
	</outline>
	<anchor name="bottom" x="443" y="0"/>
	<anchor name="top" x="443" y="1000"/>
	<anchor name="_liga" x="0" y="0"/>
</glyph>
<glyph name="idotless" format="2">
	<unicode hex="0131"/>
	<advance width="665"/>
	<outline>
		<contour>
			<point x="73.7693481445" y="0" type="line"/>
			<point x="73.7693481445" y="78.998046875" type="line"/>
			<point x="252.280090332" y="104.998046875" type="line"/>
			<point x="255.280090332" y="504" type="line"/>
			<point x="250.280090332" y="855.6516113281" type="line"/>
			<point x="67.7693481445" y="890.6516113281" type="line"/>
			<point x="67.7693481445" y="963.0361328125" type="line"/>
			<point x="324.280090332" y="1001.5493164062" type="line"/>
			<point x="385.280090332" y="1012.5493164062" type="line"/>
			<point x="430.280090332" y="975.5493164062" type="line"/>
			<point x="430.280090332" y="502" type="line"/>
			<point x="432.280090332" y="103.998046875" type="line"/>
			<point x="606.7908325195" y="78.998046875" type="line"/>
			<point x="606.7908325195" y="0" type="line"/>
		</contour>
	</outline>
	<anchor name="bottom" x="320" y="0"/>
	<anchor name="top" x="320" y="1000"/>
	<anchor name="ogonek" x="513" y="0"/>
	<anchor name="liga" x="639" y="0"/>
</glyph>
<glyph name="jdotless" format="2">
	<advance width="562"/>
	<outline>
		<contour>
			<point x="11.5946044922" y="-497.9237060547" type="qcurve"/>
			<point x="5.5946044922" y="-365.1268310547" type="line"/>
			<point x="103.0823974609" y="-371.7471923828"/>
			<point x="229.6380615234" y="-259.2443847656"/>
			<point x="229.7094726562" y="-148.8986816406" type="qcurve" smooth="yes"/>
			<point x="232.7094726562" y="515.5493164062" type="line"/>
			<point x="235.7094726562" y="845.6516113281" type="line"/>
			<point x="55.1987304688" y="880.6516113281" type="line"/>
			<point x="55.1987304688" y="963.0361328125" type="line"/>
			<point x="305.7094726562" y="1012.5493164062" type="line"/>
			<point x="350.7094726562" y="1012.5493164062" type="line"/>
			<point x="405.7094726562" y="964.5493164062" type="line"/>
			<point x="394.7094726562" y="515.5493164062" type="line"/>
			<point x="401.7094726562" y="-85.4211425781" type="line" smooth="yes"/>
			<point x="403.7094726562" y="-275.4012451172"/>
			<point x="227.7954101562" y="-503.6112060547"/>
		</contour>
	</outline>
	<anchor name="bottom" x="278" y="-436"/>
	<anchor name="top" x="278" y="1000"/>
	<anchor name="_liga" x="0" y="0"/>
</glyph>
